<svg xmlns="http://www.w3.org/2000/svg" width="43" height="32" viewBox="0 0 43 32"><path d="M0 0h42.667v32H0V0z" fill="#06F"/><path d="M14.222 0h14.222v32H14.222V0z" fill="#FFF"/><path d="M23.25 23.63c.022.227.716 1.065 1.915.918-.107-.23-.367-.397-.74-.745-.172-.176-1.185-.28-1.176-.172zM24.676 23.392c-.14.012-.263.095-.025.304.403.338 1.844.648 2.06.22-.637-.086-1.062-.22-1.128-.22-.296-.096-.678-.326-.906-.304z" fill="#0C5C1D"/><path d="M23.957 23.288c.29-.2.516-.183.704-.223.483-.033.812.033 1.013.116.298.13.733.45.788.684-.442-.008-.735-.343-1.306-.47-.29-.024-.83-.062-1.198-.107zM23.188 23.2c.84-.516 1.636-1.464 1.718-2.454-1.05.82-1.76 2.006-1.718 2.455z" fill="#0C5C1D"/><path d="M23.662 23.19c.71-.307 1.673-.997 1.79-2.433-.976.613-1.287 1.52-1.79 2.434zM25.16 22.5c-.054-.405.92-2.522 1.487-3.067.062.815-.73 3.104-1.486 3.067zM25.13 22.58c.15.63 1.755.792 2.273.056-.646-.108-1.444-.17-2.272-.055z" fill="#0C5C1D"/><path d="M25.837 22.15c.657.414 2.258.124 3.19-.616-1.393-.42-3.118.38-3.19.616zM27.103 21.245c.104-.456 1.455-1.357 2.327-1.307-.554.75-.743.623-1.032.956-.197.247-.885.43-1.295.35zM27.547 20.208c-.478-.18-.372-1.56-.052-2.124.324.76.41 1.945.052 2.124zM28.207 19.698c-.637-.354-.407-2.085-.068-2.57.265.516.404 2.318.067 2.57zM28.45 19.683c.37-.58 1.653-.605 2.217-.38-.613.598-1.556.628-2.216.38zM28.83 19.31c-.53-.83-.2-1.27.123-2.295.157.872.03 1.792-.123 2.295zM29.502 17.47c.09-.768.788-1.13 1.58-1.395-.165.566-.507 1.178-1.58 1.396z" fill="#0C5C1D"/><path d="M29.313 17.89c-.83-.142-.867-.932-.85-1.705.236.426.803.974.85 1.705zM29.103 16.55c.196-.48-.148-1.778-.994-2.257.012.795.554 1.784.993 2.258zM29.572 16.27c.12-.286.2-.43.383-.796.317-.667.112-.443.54-1.25.233.9-.23 1.975-.923 2.047zM29.628 13.86c-.573.315-1.155.11-1.95-.527.656-.06 1.245.256 1.95.527zM29.47 13.54c.343-1.14.545-1.333.826-2.57-.704.57-1.066 1.806-.826 2.57zM29.34 13.464c-.77-.56-.953-1.198-1.842-1.43.02.318 1.297 1.648 1.843 1.43z" fill="#0C5C1D"/><path d="M29.14 12.684c-.492-.614-.764-1.115-1.495-1.558.117.75.935 1.836 1.496 1.558zM28.206 11.315c.157-.856-.904-1.425-1.272-1.864-.042.758.62 1.648 1.272 1.865z" fill="#0C5C1D"/><path d="M28.2 10.33c.246-.773-.445-1.295-.79-1.69.055.754.17 1.53.79 1.69zM29.2 11.862c.305-.497.132-1.638-.065-2.118-.246.263-.363 2.028.066 2.118z" fill="#0C5C1D"/><path d="M28.73 10.85c.345-.61.152-1.26-.05-1.74-.224.71-.386 1.396.05 1.74zM29.433 15.68c.512-.065.874-1.132.522-2.086-.328.85-.327 1.254-.522 2.087z" fill="#0C5C1D"/><path d="M29.302 13.79c.637.034 1.038-.517 1.376-1.48-.524.338-.782 1.228-1.376 1.48zM29.732 15.942c-.582.14-1.24-1.386-.788-2.246.494.985.606 1.4.788 2.246zM29.112 18.18c.08-.584 1.33-.732 1.957-.604-.503.403-1.524.653-1.958.603z" fill="#0C5C1D"/><path d="M28.816 19.104c.355-.31.916.024 1.817-1.732-1.21.69-1.677 1.496-1.817 1.732zM18.815 23.648c-.023.227-.818.93-1.916.918.106-.23 1.186-.48 1.48-.896.086-.126.443-.13.435-.02zM18.01 23.326c.137-.023.212.045-.026.254-.402.338-1.087.497-2.094.673.335-.338 1.147-.624 1.213-.622.296-.096.645-.258.906-.304z" fill="#0C5C1D"/><path d="M18.593 23.29c-.106-.234-.213-.35-.4-.39-.483-.034-.862.05-1.013.115-.164.095-.682.433-.738.667.392-.11.652-.41 1.223-.486.274-.092.66-.08.93.094zM19.666 23.035c-.84-.517-1.368-1.18-1.45-2.17 1.05.822 1.492 1.722 1.45 2.17z" fill="#0C5C1D"/><path d="M19.14 23.177c-.793-.342-1.083-.982-1.637-2.03.99.495 1.404 1.015 1.638 2.03zM17.357 22.82c.172-.708-.128-1.75-.646-2.26-.044.797.11 2.128.647 2.26z" fill="#0C5C1D"/><path d="M17.083 22.633c-.148.628-1.787.64-2.272.055.495.11 1.58.132 2.273-.055zM16.647 22.135c-.506.38-2.544-.246-2.57-.6.27-.033 2.498.365 2.57.6z" fill="#0C5C1D"/><path d="M16.5 22.003c.295-.583-.517-2.43-.842-2.415.192 1.38.54 2.01.842 2.415zM15.968 21.515c-.188-.44-1.607-1.19-2.327-1.307.588.617.966.53 1.167.922.147.264.784.31 1.16.385z" fill="#0C5C1D"/><path d="M15.702 21.183c.148-.554.074-.776-.288-1.174-.037.582.037.812.288 1.173zM15.17 20.564c.4-.26.155-1.598-.2-1.972-.074.964-.17 1.815.2 1.972zM14.46 19.565c.688-.236.156-1.514-.066-2.016-.266.516.2.79.067 2.015zM14.335 19.65c-.57-.547-1.585-.59-2.148-.364.68.23 1.724.377 2.148.364zM13.737 18.43c-.15-.568-1.408-.565-2.015-.363.547.34 1.59.466 2.015.364z" fill="#0C5C1D"/><path d="M14.134 19.324c-.355-.31-.916.024-1.817-1.732 1.21.69 1.677 1.496 1.817 1.732z" fill="#0C5C1D"/><path d="M13.99 19.345c.53-.83.2-1.27-.124-2.295-.157.872-.03 1.792.123 2.295zM13.182 17.456c-.16-.752-.872-1.132-1.596-1.228.198.38.74.523 1.596 1.228z" fill="#0C5C1D"/><path d="M13.306 17.838c.837-.076.938-.86.982-1.633-.27.406-.877.908-.982 1.633zM13.298 16.85c.488.05 1.098-1.012.88-1.865-.398.945-.434 1.277-.88 1.866zM13.09 15.948c.515-.03.95-1.07.66-2.048-.237.903-.13 1.298-.66 2.048zM13 16.414c-.124-.3-.36-.398-.47-.79-.2-.704-.58-.815-.522-1.364.885 1.03 1.12 1.646.992 2.154zM13.044 15.643c-.222-1.992.173-1.144-.69-3.022 1.285 1.152.93 2.946.69 3.023z" fill="#0C5C1D"/><path d="M13.103 14.8c-.043-.636.5-1.047 1.458-1.4-.327.53-1.213.802-1.457 1.4zM13.332 13.34c-.343-1.14-.545-1.333-.826-2.57.704.57 1.066 1.806.826 2.57zM13.647 13.297c.772-.56.954-1.198 1.843-1.43-.02.318-1.297 1.648-1.843 1.43z" fill="#0C5C1D"/><path d="M13.594 12.77c.493-.614.765-1.115 1.496-1.558-.117.75-.935 1.836-1.496 1.558zM14.72 10.844c.024-.87 1.18-1.205 1.63-1.558-.116.75-.95 1.482-1.63 1.558z" fill="#0C5C1D"/><path d="M14.625 10.246c-.154-.795.594-1.233.982-1.583-.143.74-.347 1.5-.982 1.583zM13.602 11.527c-.304-.497-.13-1.638.066-2.118.246.262.363 2.027-.066 2.117zM14.133 10.824c-.254-.653.03-1.27.3-1.715.12.736.18 1.437-.3 1.714z" fill="#0C5C1D"/><path d="M18.227 21.607c2.315-2.264 4.328-4.227 7.55-6.25-5.215 4.06-5.054 4.378-7.248 6.417-.092-.076-.212-.09-.303-.166z" fill="#6F8593"/><path d="M14.107 22.14l.863.95 2.614-3.97 1.1-1.17-.266-.387-1.69 1.65-.193.388-2.427 2.54zM28.376 22.2l-1.104.98-2.463-4-1.433-1.56.387-.268 1.9 1.923.195.387 2.516 2.54z" fill="#6A0D06"/><path d="M24.807 19.78c.023-.142.21-.422-.212-.8.01-.2.216-.41.378-.512.136 0 .528.274.702.58.098.215.15.547.023.8-.093.142-.2.305-.317.37-.054.04-.178.03-.278-.014-.16-.08-.28-.312-.294-.423z" fill="#BBCDCD"/><path d="M19.524 12.717l-1.928-1.945-.115.005-.04.128-.06.18-.23.214-3.01-2.825 2.83 3.088.135.002.413-.43.174.04 1.42 1.663.412-.12zM22.04 24.312c3.528-5.73 6.6-9.677.97-14.74-.21-.21-.937-.882-1.392-1.027-.063-.41.247-1.058-.547-1.11-.337.017-.503.138-.497.442 0 .237.126.34.06.553-.023.106-.286.348-.27.656.102.656.356.817.433.91.138.138.22.234.625.4.046.055.165.155.227.223.743.158 1.42.077 1.9.316.21.065.546.42.655.598 1.356 1.487 1.943 3.873-.13 6.393.414.034 1.41-1.668 1.636-3.114-.318 2.156-1.02 2.91-1.37 3.553.698-.464 1.258-2.098 1.39-2.434-.553 2.975-3.414 6.647-5.213 7.418 1.63-.378 2.722-2 3.3-2.582-.563 1.164-1.724 2.81-1.775 3.545z"/><path d="M24.464 21.758c-2.255-2.28-5.853-5.722-7.64-6.1 2.783 1.798 5.234 4.213 7.338 6.267.09-.076.21-.09.302-.166z" fill="#6F8593"/><path d="M23.052 12.87l2.12-2.098.115.005.04.128.062.18.227.214 3.01-2.825-2.83 3.088-.134.002-.413-.43-.174.04-1.805 2-.22-.306z"/><path d="M17.443 12.095c.11-.604.297-1.042.92-1.147 1.637-.07 3.152-.08 4.863-.045.488.388-.02 1.183-.528 1.223.78 1.35 1.847 2.38 1.993 3.97.05.836-.243 1.378-.54 1.68-2.247.054-3.337.334-5.216.48-.525.062-.92-.55-.915-1.057.002-.526.218-.937.802-1.01.18-.02.433-.008.66-.003-.438-1.308-2.13-2.858-2.038-4.09z" fill="#E3CF6E"/><path d="M20.395 8.877c-.194.623.294 1.158.37 1.252.138.136.228.248.632.415.045.054.624.384.706.462.616.16.943-.115 1.644.057-.18-.445-2.053-2.272-3.353-2.186z" fill="#336446"/><path d="M20.41 9.16c-.188.308.31 1.046.387 1.14.138.136.228.248.632.415.044.054.244.155.274.19l.53.098c-.18-.445-1.205-1.987-1.823-1.843z" fill="#402E08"/><path d="M20.61 8.106l-.125.092.183.092-.057-.183z"/><path d="M20.363 9.376c.102.656.347.835.43.923.13.14.232.232.636.415.16.134.223.17.35.24l.427.063c-.18-.445-1.248-1.46-1.844-1.64z" fill="#8C361D"/><path d="M17.593 19.728c-.023-.143-.21-.423.212-.8-.01-.2-.216-.41-.378-.513-.136 0-.528.274-.702.58-.098.215-.15.547-.023.8.093.142.2.305.317.37.054.04.178.03.278-.014.16-.08.28-.31.294-.422z" fill="#BBCDCD"/><path d="M17.895 21.82c-.19.22-.94.653-1.087.8-.12.16.166.38.347.407.322-.242.644-.574.936-.77.408-.376.38-.407 1.043-.212-.096-.352-.765-.63-1.147-.71-.644.07-.94.338-1.072.71.428-.322.72-.478.98-.227z" fill="#D4BE72"/><path d="M24.918 19.772c.012-.07.05-.106.052-.24.14.202.21.305.392.563-.066.088-.162.047-.25.004-.085-.055-.205-.228-.193-.328zM17.5 19.726c-.01-.07-.05-.106-.05-.24-.142.202-.21.305-.393.563.066.087.162.046.25.003.085-.054.205-.227.193-.327z" fill="#FFF"/><path d="M24.66 21.97c.192.22.942.654 1.088.8.12.16-.166.382-.347.408-.32-.242-.643-.574-.935-.77-.334-.4-.478-.382-1.042-.212.096-.352.765-.63 1.147-.71.644.07.94.338 1.072.71-.428-.322-.72-.478-.98-.227z" fill="#D4BE72"/><path d="M19.47 16.19c.16.23.295.738.316 1.063.028.63-.61.95-.828.923-.413-.05-.75-.36-.785-.843.066-.562.302-.874.694-.897.256.045.545.35.545.72-.007.307-.094.613-.283.62-.46-.036-.433-.3-.508-.443-.02-.105-.036-.39.016-.46.068-.084.384-.196.54.022.166.17-.248-.09-.412.026-.084.12-.028.314-.005.39.03.078.026.33.343.316.116-.018.157-.255.166-.486.017-.158-.206-.477-.428-.544-.155-.025-.534.292-.518.737.03.505.445.68.667.646.227-.06.698-.24.68-.743-.05-.555-.154-.785-.332-1.052.07 0 .064 0 .134.005zM22.78 12.268l-.096-.155h-2.07c-.588.053-1.482.142-1.79.276-.788.387-1.003-.298-1.046-.47-.046-.156.052-.438.205-.538.06-.116.4-.242.603-.166.23.098.332.39.295.587-.068.294-.624.475-.426.176.025-.132.125-.497-.05-.76l-.162.033c.224.467.018.698.008.832-.01.224.18.205.33.2.1-.006.272-.135.34-.204.085-.072.097-.213.108-.378.026-.435-.372-.744-.64-.705-.817.203-.836.884-.65 1.238.102.178.22.287.42.39.168.05.42.02.62-.053.394-.14 1.032-.267 1.828-.286l2.176-.018z"/><path d="M22.062 15.668l.086.125h-.013c-.027-.027-.05-.047-.068-.058s-.038-.02-.06-.026c-.01-.004-.028-.004-.05-.002l-.036.004.245.355c.016.023.027.038.034.044s.015.01.026.015c.01.003.023.004.037.003l.016-.002.008.013-.253.026-.01-.013.017-.002c.014 0 .024-.004.03-.01.003-.004.004-.01.002-.018 0-.006-.01-.02-.025-.043l-.245-.356-.035.004c-.033.003-.052.013-.057.027-.008.02-.003.048.015.083h-.014l-.086-.124.434-.046zM20.805 15.83l.13.187h.01c.03-.004.046-.016.047-.036s-.01-.047-.03-.083h.015l.165.24h-.013c-.022-.025-.043-.046-.063-.062s-.04-.026-.055-.03c-.016-.005-.036-.006-.06-.003l.09.13c.017.025.03.04.035.046s.014.01.022.013c.008.004.02.005.033.003l.03-.003c.044-.005.073-.02.087-.04s.012-.056-.004-.098h.013l.078.148-.417.044-.008-.013h.016c.014-.002.024-.006.03-.012.003-.004.004-.01.002-.018 0-.006-.01-.02-.025-.043l-.208-.303-.028-.038c-.01-.008-.017-.013-.027-.017-.013-.006-.028-.008-.044-.007l-.017.002-.01-.013.405-.043.093.135h-.012c-.03-.032-.056-.054-.078-.068s-.047-.022-.075-.026c-.016-.002-.042 0-.08.003l-.05.005zM20.392 16.326l.01.013-.253.026-.01-.013.016-.002c.014 0 .024-.004.03-.01.003-.004.004-.01.002-.018 0-.006-.01-.02-.025-.043l-.208-.304c-.016-.024-.027-.038-.034-.044s-.015-.01-.026-.014c-.01-.004-.023-.005-.037-.003l-.016.002-.008-.013.252-.027.01.013-.017.002c-.014 0-.024.005-.03.01-.003.005-.004.01-.002.02 0 .005.01.02.025.042l.208.303c.016.024.028.038.034.044s.016.01.027.015c.01.003.022.004.036.003l.016-.002zM19.997 16.208l.093.164-.43.046-.008-.013.016-.002c.014 0 .024-.005.03-.01.003-.005.004-.01.002-.02 0-.005-.01-.02-.025-.042l-.208-.302c-.016-.024-.028-.038-.034-.044s-.015-.01-.026-.014c-.01-.004-.023-.005-.037-.003l-.016.002-.01-.014.26-.027.008.012-.02.002c-.015.002-.025.005-.03.01-.004.005-.005.01-.003.02 0 .005.01.02.025.042l.2.293c.017.023.03.037.036.044s.017.01.028.012l.045-.002.04-.004c.026-.003.044-.01.055-.02s.017-.026.016-.046c0-.02-.007-.05-.02-.086l.014-.002zM22.94 16.068l-.01-.013.017-.002c.014 0 .023-.005.028-.01s.006-.01.005-.018c0-.005-.01-.02-.026-.043l-.208-.303c-.016-.025-.028-.04-.034-.045s-.015-.01-.026-.014c-.01-.003-.023-.004-.037-.002l-.017.002-.01-.013.217-.023c.058-.006.11-.004.155.008.056.014.107.038.155.073s.088.076.12.122c.022.032.037.063.045.09s.01.053.004.073c-.006.02-.016.036-.032.05s-.037.023-.066.033c-.013.004-.034.008-.066.01l-.216.024zm-.114-.454l.247.36c.013.018.022.03.027.034s.01.007.016.01c.01.002.02.002.03 0 .04-.003.062-.02.065-.047.006-.037-.017-.093-.068-.166-.04-.06-.083-.105-.126-.14-.034-.025-.067-.042-.098-.05-.022-.004-.053-.005-.092 0zM22.617 15.962l-.17.018.01.047c.004.016.01.028.015.038.01.013.02.022.036.027.01.003.027.004.053.003l.01.013-.16.017-.01-.013c.016-.004.025-.013.03-.025s0-.037-.007-.074l-.08-.386h.008l.434.358c.04.034.07.055.087.063.014.006.028.01.044.01l.01.012-.235.025-.01-.013h.01c.02-.003.03-.007.034-.013.003-.005.002-.01-.003-.017-.002-.004-.005-.008-.01-.012-.002 0-.01-.01-.028-.023l-.065-.055zm-.03-.024l-.18-.15.035.166.146-.016zM21.44 16.003l.088.13c.017.024.03.04.037.046s.017.01.028.012c.01.003.027.003.05 0l.008.014-.246.026-.01-.013c.023-.003.037-.007.042-.012s.007-.01.006-.017c0-.006-.01-.022-.027-.046l-.205-.3c-.017-.024-.03-.04-.037-.045s-.017-.012-.027-.015-.027-.003-.05 0l-.008-.013.224-.024c.058-.006.104-.007.136-.002s.064.017.096.036c.03.02.056.042.075.07.022.034.03.063.018.088-.007.016-.022.03-.047.04l.224.143c.03.018.048.03.058.034.015.006.028.01.042.008l.01.013-.153.016-.3-.193-.03.004zm-.155-.226l.138.202.02-.003c.033-.004.056-.01.068-.016s.02-.018.018-.034c0-.016-.01-.036-.026-.06-.024-.036-.05-.06-.08-.076s-.06-.02-.1-.016l-.037.004zM20.574 16.058c.053.005.093.014.122.027.04.018.072.043.095.076.025.036.03.066.016.092-.017.03-.06.05-.128.058l-.245.026-.01-.013c.023-.002.037-.006.042-.01s.007-.012.006-.018c0-.007-.01-.023-.026-.047l-.205-.3c-.018-.024-.03-.04-.038-.045s-.017-.01-.027-.014c-.01-.004-.027-.004-.05-.002l-.008-.013.23-.025c.056-.006.1-.005.128.002s.057.02.083.036c.026.017.046.036.06.057s.02.043.016.062c-.005.02-.025.036-.06.05zm-.136.005c.034-.004.056-.01.067-.02s.017-.02.016-.034c0-.015-.007-.032-.02-.053s-.03-.037-.048-.05c-.017-.01-.036-.02-.056-.025s-.048-.006-.082-.002l.124.18zm.02.027l.1.148.01.017c.01.012.02.02.03.027s.023.007.036.006c.02-.002.034-.008.044-.017s.015-.022.013-.038c0-.016-.008-.034-.02-.053-.016-.023-.034-.04-.056-.057s-.045-.027-.068-.03c-.023-.006-.053-.006-.09-.002z" fill="#8C361D"/><path d="M21.86 15.724l.12.188h.01c.032-.004.048-.016.05-.036s-.007-.048-.026-.084h.014l.156.24h-.014c-.02-.025-.04-.046-.06-.062s-.038-.026-.054-.03c-.016-.005-.036-.006-.06-.003l.085.13c.017.025.03.04.034.046s.013.01.022.013c.01.003.02.004.034.002l.03-.003c.044-.005.074-.02.088-.04s.015-.056 0-.098h.013l.074.148-.42.044-.007-.014.016-.002c.014 0 .024-.005.03-.01.003-.005.004-.01.003-.02 0-.005-.01-.02-.024-.042l-.196-.303c-.014-.022-.022-.035-.027-.04-.01-.007-.017-.012-.026-.016-.013-.005-.028-.007-.043-.006l-.015.002-.008-.013.406-.043.088.136h-.013c-.028-.032-.054-.054-.076-.068s-.045-.022-.073-.026c-.016-.003-.042-.002-.08.002l-.05.005zM20.677 15.82l.227-.023.02.09-.19.02.01.05c.085-.007.16.006.23.037.055.026.097.06.125.105.017.027.027.056.028.085s-.01.052-.03.07c-.022.018-.05.03-.088.032-.04.004-.075 0-.105-.01-.02-.01-.036-.02-.044-.033-.005-.01-.007-.02-.004-.027s.01-.013.02-.014c.01 0 .02 0 .032.002s.034.01.067.023c.02.008.037.013.05.016.01.002.018.002.028 0 .02 0 .032-.01.037-.025s0-.033-.01-.052c-.027-.04-.07-.07-.127-.09s-.12-.027-.183-.02l-.03.003-.062-.24zM20.432 15.837l.244.377c.018.028.03.046.04.054s.016.013.028.017.027.005.045.003h.01l.008.012-.255.027-.008-.013h.013c.02-.003.034-.007.04-.013s.008-.01.006-.02c-.002-.008-.012-.027-.03-.056l-.156-.24c-.014-.02-.023-.033-.03-.038s-.012-.01-.02-.012c-.008-.003-.016-.004-.024-.004-.012 0-.025.006-.037.016l-.014-.012.128-.096h.013zM21.422 16.234l-.008-.013h.016c.014-.002.023-.006.028-.01s.007-.012.006-.02c0-.004-.01-.018-.025-.042l-.197-.303c-.015-.024-.026-.038-.032-.044s-.014-.01-.025-.013c-.01-.004-.023-.005-.037-.003l-.016.002-.008-.013.217-.023c.06-.006.11-.004.155.008.055.014.106.038.152.073s.085.077.115.123c.02.032.035.063.042.09s.007.053 0 .073c-.005.02-.016.036-.032.05s-.038.023-.067.033c-.013.003-.035.007-.066.01l-.218.023zm-.096-.454l.233.36c.01.018.02.03.025.034s.01.007.016.01c.01.002.02.002.032 0 .04-.003.062-.02.066-.047.006-.038-.015-.093-.062-.167-.038-.06-.08-.105-.12-.14-.034-.025-.066-.042-.097-.05-.023-.004-.053-.005-.093 0zM23.272 15.565l.13.188h.01c.032-.004.047-.016.048-.036s-.01-.048-.03-.084h.014l.168.24H23.6c-.022-.025-.043-.046-.064-.062s-.04-.025-.055-.03c-.015-.004-.035-.005-.058-.002l.09.13c.018.025.03.04.036.046s.014.01.023.013c.01.003.02.004.035.002l.03-.004c.044-.005.073-.02.086-.04s.013-.056-.004-.098h.013l.08.148-.418.044-.01-.013.017-.002c.013 0 .023-.005.028-.01.004-.005.005-.01.003-.02 0-.005-.01-.02-.025-.042l-.21-.303c-.016-.02-.025-.034-.03-.038-.008-.008-.017-.013-.026-.017-.014-.005-.03-.007-.045-.006h-.016l-.01-.012.404-.043.095.136-.014.002c-.03-.033-.056-.055-.08-.07s-.046-.02-.074-.025c-.016-.003-.042-.002-.08.002l-.05.004z" fill="#8C361D"/><path d="M21.914 16.007l-.08-.318.195-.022.008.013-.016.003c-.014.002-.024.005-.03.01-.003.005-.004.01-.002.02 0 .005.01.02.026.042l.212.304c.016.022.028.037.035.043s.016.01.027.014c.01.003.023.004.037.003l.016-.002.01.013-.253.028-.01-.013.017-.002c.014-.002.024-.005.03-.01.003-.005.004-.01.002-.02-.002-.005-.01-.02-.027-.042l-.238-.34.108.44h-.01l-.478-.396.226.324.032.042c.01.01.024.02.04.026s.033.008.055.005l.01.014-.166.018-.008-.013.005-.002c.01 0 .02-.004.027-.008s.01-.01.01-.017 0-.015-.005-.026l-.024-.035-.203-.29c-.016-.024-.028-.04-.034-.044s-.017-.01-.028-.014c-.01-.004-.024-.005-.037-.003l-.015.003-.01-.013.198-.02.347.288zM21.086 15.798l.13.188h.01c.032-.004.047-.016.048-.036s-.01-.048-.03-.084h.013l.168.24h-.014c-.02-.025-.04-.046-.062-.062s-.04-.026-.055-.03c-.016-.005-.036-.006-.06-.003l.09.13c.02.026.03.042.037.047s.014.01.023.013c.01.003.02.004.034.002l.03-.003c.044-.006.073-.02.086-.042s.012-.055-.005-.097h.013l.08.15-.416.043-.01-.013.017-.002c.015 0 .025-.005.03-.01.004-.005.005-.01.003-.02 0-.005-.01-.02-.026-.042l-.21-.303c-.016-.02-.025-.034-.03-.038-.008-.008-.017-.013-.026-.017-.012-.005-.027-.007-.043-.006l-.016.002-.008-.013.404-.042.095.136h-.013c-.03-.032-.056-.054-.08-.068s-.046-.022-.074-.026c-.016-.003-.042-.002-.08.002l-.05.005zM21.164 16.242l.01.013-.253.027-.008-.013.016-.003c.014-.002.024-.005.03-.01.003-.005.004-.01.002-.02 0-.005-.01-.02-.026-.042l-.21-.303c-.017-.024-.03-.038-.036-.044s-.016-.01-.027-.014c-.01-.004-.022-.005-.036-.003l-.016.003-.01-.012.253-.026.01.012-.016.002c-.014 0-.024.005-.03.01-.003.005-.004.01-.002.02 0 .005.01.02.026.042l.21.303c.017.023.03.038.036.044s.016.01.027.014c.012.004.024.005.038.004l.016-.002zM20.56 15.826l.087.125-.013.002c-.028-.028-.05-.048-.068-.06s-.038-.02-.06-.025c-.01-.003-.028-.003-.05 0l-.037.003.247.355c.016.024.028.038.035.044s.016.01.027.013c.01.003.022.004.036.003l.016-.002.01.013-.254.027-.01-.013h.017c.014-.002.024-.006.03-.012.003-.004.004-.01.002-.018 0-.006-.01-.02-.026-.043l-.247-.355-.035.004c-.032.004-.05.013-.057.027-.007.02-.002.048.017.083h-.014l-.087-.124.433-.046zM19.385 15.98l.13.186h.01c.032-.004.047-.016.048-.036s-.01-.048-.03-.084h.013l.168.24h-.014c-.02-.025-.042-.046-.063-.062s-.04-.026-.055-.03c-.016-.005-.036-.006-.06-.003l.09.13c.02.026.03.042.037.047s.013.01.022.013c.01.003.02.004.034.002l.03-.003c.044-.006.073-.02.086-.042s.012-.055-.005-.097h.013l.08.15-.417.043-.01-.013.017-.002c.014 0 .024-.005.03-.01.003-.005.004-.01.002-.02 0-.005-.01-.02-.026-.042l-.21-.303c-.016-.02-.025-.034-.03-.038-.008-.008-.017-.013-.026-.017-.013-.005-.028-.007-.044-.006l-.016.002-.01-.013.405-.042.095.136h-.014c-.03-.032-.056-.054-.08-.068s-.046-.022-.074-.026c-.016-.003-.042-.002-.08.002l-.05.005zM19.098 15.97l.11.153-.014.002c-.034-.038-.072-.067-.115-.087s-.082-.03-.113-.026c-.024.003-.04.01-.045.025s-.003.03.01.045c.006.01.015.02.025.026.014.01.033.02.055.028.016.006.05.017.105.032.075.02.13.04.167.063s.064.048.085.08c.026.037.033.072.02.104s-.04.05-.09.054c-.015.002-.03.002-.046 0s-.036-.005-.062-.01c-.015-.004-.025-.006-.033-.005-.007 0-.012.004-.016.01s-.004.012-.002.022h-.013l-.122-.173h.013c.045.047.092.082.14.105s.088.032.122.028c.026-.003.043-.012.05-.027s.002-.032-.01-.05c-.01-.012-.02-.022-.032-.032s-.03-.018-.048-.026c-.02-.008-.05-.018-.09-.03-.058-.015-.102-.03-.13-.042s-.056-.027-.08-.044c-.022-.017-.04-.036-.056-.058-.026-.037-.033-.07-.023-.098s.037-.046.08-.05c.016-.002.032-.002.05 0 .012.003.03.006.05.012s.035.008.04.007c.007 0 .01-.003.012-.007s-.002-.013-.008-.027h.01zM20.027 16.154l.09.128c.016.025.03.04.037.047s.017.01.028.012c.01.003.027.003.05 0l.008.014-.245.026-.01-.013c.023-.003.037-.007.042-.012s.007-.01.006-.017c0-.006-.01-.022-.028-.046l-.208-.3c-.017-.024-.03-.04-.038-.045s-.018-.012-.03-.015-.026-.003-.048 0l-.01-.013.21-.022c.07-.007.128 0 .175.02s.082.047.107.082c.02.03.03.057.024.08s-.02.04-.05.052c-.02.008-.056.015-.11.02zm-.157-.226l.14.2.017-.002c.03-.003.046-.014.05-.032s-.006-.045-.03-.08c-.024-.033-.05-.057-.076-.072s-.055-.02-.086-.016l-.015.002zM22.518 15.85c.053.004.094.013.122.026.04.018.073.043.096.076.024.035.03.065.016.09-.017.032-.06.05-.128.06l-.245.025-.01-.013c.022-.002.036-.006.04-.01s.008-.012.007-.018c0-.007-.01-.023-.028-.047l-.21-.3c-.016-.025-.03-.04-.037-.046s-.017-.01-.028-.014c-.01-.003-.027-.003-.05 0l-.008-.014.23-.025c.056-.005.1-.004.128.003s.057.02.084.036c.025.016.046.035.06.056s.02.043.016.062c-.005.02-.025.036-.06.05zm-.136.004c.034-.004.056-.01.067-.02s.015-.02.015-.034c0-.014-.008-.03-.022-.052s-.03-.037-.048-.05c-.017-.01-.036-.02-.057-.025s-.048-.006-.082-.002l.126.182zm.018.026l.103.148.01.017c.01.012.02.02.03.027s.023.007.036.006c.018-.002.033-.008.043-.017s.015-.022.013-.038-.01-.034-.023-.053c-.015-.023-.034-.04-.056-.057s-.045-.027-.068-.03c-.024-.006-.054-.006-.09-.002zM22.897 15.846l.09.13c.017.024.03.04.038.046s.017.01.028.013c.01.003.027.003.05 0l.008.014-.246.025-.01-.013c.023-.002.037-.006.042-.01s.007-.012.006-.018c0-.007-.01-.022-.028-.047l-.208-.3c-.017-.024-.03-.04-.038-.045s-.017-.01-.028-.014c-.01-.003-.027-.003-.05 0l-.008-.014.224-.024c.058-.006.104-.007.136-.002s.064.017.096.036c.03.02.057.042.076.07.024.034.03.063.02.088-.007.016-.022.03-.047.04l.225.143c.03.018.05.03.06.034.014.005.028.008.04.007l.01.013-.152.016-.302-.193-.032.003zm-.158-.226l.14.202.02-.002c.033-.004.056-.01.068-.016s.018-.02.017-.035c0-.017-.01-.037-.027-.062-.025-.035-.05-.06-.08-.075s-.062-.02-.1-.016l-.038.004z" fill="#8C361D"/><path d="M22.472 15.63l.177.378c.012.028.022.046.03.054s.014.013.025.017c.01.003.026.004.044.002h.01l.006.012-.26.027-.006-.012h.013c.02-.003.035-.007.042-.012s.01-.012.01-.02c-.002-.01-.01-.028-.022-.057l-.113-.24c-.01-.02-.017-.034-.022-.04s-.01-.008-.02-.01c-.007-.004-.014-.006-.022-.005-.012 0-.026.006-.04.016l-.012-.01.145-.097h.01zM22.386 16.133l-.29.03-.005-.008c.044-.108.066-.18.07-.217s-.004-.07-.02-.103c-.01-.024-.027-.043-.05-.057s-.047-.02-.07-.018c-.037.004-.058.024-.062.06l-.016-.002c-.007-.045-.003-.08.014-.103s.043-.037.078-.04c.025-.004.05 0 .076.008s.05.022.07.04c.02.018.035.035.042.05.014.03.02.063.016.096-.005.043-.03.107-.078.19l.107-.01c.026-.003.043-.006.05-.008s.012-.007.015-.012c.003-.005.005-.016.005-.033h.013l.035.135zM21.353 15.748l.177.377c.013.028.023.046.03.054s.015.012.026.016c.01.004.026.005.044.003l.01-.002.007.013-.26.028-.006-.013h.014c.02-.003.035-.007.042-.013s.01-.012.01-.02c-.002-.01-.01-.028-.022-.057l-.113-.24c-.01-.02-.016-.033-.02-.038s-.012-.01-.02-.012c-.008-.003-.015-.005-.023-.004-.012.002-.026.007-.04.017l-.012-.012.145-.096.012-.002zM20.645 15.86l.088.187h.01c.03-.004.05-.016.055-.036s.002-.047-.01-.083h.013l.115.24H20.9c-.014-.025-.03-.046-.048-.062s-.033-.026-.048-.03c-.015-.005-.035-.006-.058-.003l.06.13c.013.025.02.04.026.046s.012.01.02.013c.008.004.02.005.033.003l.03-.003c.046-.005.078-.02.097-.04s.024-.056.017-.098h.013l.047.148-.427.044-.006-.013h.016c.014-.003.025-.006.03-.012.006-.004.008-.01.008-.018 0-.006-.004-.02-.015-.043l-.143-.303c-.01-.02-.016-.034-.02-.038-.006-.008-.014-.013-.022-.017-.012-.006-.026-.008-.042-.007l-.016.002-.006-.013.414-.043.064.135h-.014c-.023-.032-.044-.054-.064-.068s-.042-.022-.07-.026c-.015-.002-.04 0-.078.003l-.05.005zM20.118 16.37l-.006-.014.016-.002c.014 0 .024-.005.03-.01s.01-.01.01-.018c0-.005-.007-.02-.018-.043l-.143-.303c-.01-.024-.02-.038-.025-.044s-.013-.01-.024-.014c-.01-.004-.022-.005-.036-.003h-.016l-.006-.012.22-.023c.06-.006.11-.004.154.008.053.014.1.038.14.073s.07.076.093.122c.015.032.024.063.025.09s-.002.053-.01.073c-.01.02-.024.037-.042.05s-.042.024-.073.034c-.014.004-.036.008-.068.01l-.222.024zm-.017-.455l.17.36c.01.018.015.03.02.034s.008.006.013.008c.008.003.018.003.03.002.042-.004.066-.02.076-.048.012-.038 0-.093-.034-.167-.028-.06-.06-.105-.097-.14-.03-.025-.06-.042-.088-.05-.02-.004-.05-.005-.092 0zM21.835 15.917c.046.02.08.04.103.06s.04.04.054.067c.017.037.017.07 0 .1s-.053.045-.105.05c-.05.005-.092-.002-.13-.022s-.062-.046-.078-.078c-.013-.025-.015-.047-.01-.067s.025-.04.054-.06c-.052-.023-.088-.043-.108-.06s-.034-.035-.045-.06c-.014-.03-.012-.058.005-.085s.05-.042.1-.047c.046-.005.087.002.122.02s.06.04.073.07c.01.022.012.042.006.06s-.02.035-.043.052zm-.035-.014c.004-.012.004-.026.002-.04s-.007-.03-.015-.047c-.014-.03-.03-.05-.052-.066-.016-.01-.033-.015-.05-.014-.017.002-.028.01-.035.02s-.006.027.002.044c.008.017.022.033.043.05s.056.034.104.053zm-.04.08c-.004.006-.006.012-.007.018 0 .01 0 .02.003.037s.01.032.017.048c.01.02.02.04.034.053s.026.023.04.028c.013.005.026.007.037.006.018-.002.03-.01.036-.023s.005-.032-.005-.053c-.02-.044-.072-.082-.154-.116z" fill="#8C361D"/></svg>